# xmcd
#
# Track frame offsets:
#	150
#	13445
#	29126
#	40258
#
# Disc length: 680 seconds
#
# Revision: 0
# Processed by: cddbd v1.5.2PL0 Copyright (c) Steve Scherf et al.
# Submitted via: audiograbber 1.83.01
#
DISCID=3402a604
DTITLE=Onnenpojat - Onnenpoika [CDS) (RCD-009)
DYEAR=2000
DGENRE=Pop
TTITLE0=Onnenpoika
TTITLE1=Ruusunen
TTITLE2=Kaunis Lettipää
TTITLE3=Tyttö-Kulta
EXTD=TR.
EXTT0=
EXTT1=
EXTT2=
EXTT3=
PLAYORDER=
